<?xml version="1.0" standalone="no"?>
<!DOCTYPE svg PUBLIC "-//W3C//DTD SVG 20010904//EN"
 "http://www.w3.org/TR/2001/REC-SVG-20010904/DTD/svg10.dtd">
<svg version="1.0" xmlns="http://www.w3.org/2000/svg"
 width="260.000000pt" height="260.000000pt" viewBox="0 0 260.000000 260.000000"
 preserveAspectRatio="xMidYMid meet">
<metadata>
Created by potrace 1.11, written by Peter Selinger 2001-2013
</metadata>
<g transform="translate(0.000000,260.000000) scale(0.100000,-0.100000)"
fill="#000000" stroke="none">
<path d="M1100 2575 c-692 -110 -1174 -745 -1090 -1435 54 -441 333 -826 734
-1016 793 -375 1728 142 1836 1016 68 554 -232 1091 -743 1330 -219 103 -498
142 -737 105z m503 -437 c47 -56 -20 -141 -86 -107 -30 16 -37 28 -37 64 0 35
7 47 35 63 26 15 66 6 88 -20z m-103 -288 c11 -11 20 -28 20 -37 0 -16 -82
-278 -256 -821 -61 -190 -79 -235 -99 -248 -21 -14 -30 -14 -55 -4 -18 8 -33
22 -37 37 -7 32 313 1049 340 1075 23 24 62 23 87 -2z m-502 -256 c30 -21 30
-69 0 -88 -13 -8 -128 -58 -255 -112 -128 -53 -233 -100 -233 -103 0 -3 110
-50 243 -105 133 -54 248 -103 255 -109 6 -5 12 -22 12 -38 0 -39 -39 -65 -77
-51 -78 27 -540 227 -555 239 -43 38 -29 122 26 150 48 25 540 233 551 233 6
0 21 -7 33 -16z m907 -106 c143 -61 270 -120 283 -131 31 -29 31 -95 -1 -125
-31 -29 -534 -243 -576 -245 -48 -2 -77 43 -52 81 4 7 118 58 252 114 134 55
247 103 251 107 4 3 -105 54 -243 111 -155 65 -255 112 -261 123 -23 43 18 93
67 81 11 -3 137 -55 280 -116z"/>
</g>
</svg>
